<?xml version="1.0" encoding="utf-8"?>
<!-- Generator: Adobe Illustrator 24.0.1, SVG Export Plug-In . SVG Version: 6.00 Build 0)  -->
<svg version="1.1" id="Слой_2_1_" xmlns="http://www.w3.org/2000/svg" xmlns:xlink="http://www.w3.org/1999/xlink" x="0px"
	 y="0px" viewBox="0 0 194.8 99.2" style="enable-background:new 0 0 194.8 99.2;" xml:space="preserve">
<style type="text/css">
	.st0{fill:#303030;}
	.st1{fill:#FFFFFF;}
	.st2{fill:#0A93FD;}
</style>
<title>arrow right</title>
<rect x="12.7" y="60.8" class="st0" width="6.8" height="38"/>
<rect x="172.2" y="60.8" class="st0" width="6.8" height="38"/>
<path class="st1" d="M184.3,64.4H10.5C4.7,64.4,0,59.7,0,53.9l0-43.4C0,4.7,4.7,0,10.5,0l173.7,0c5.8,0,10.5,4.7,10.5,10.5v43.4
	C194.7,59.7,190,64.4,184.3,64.4z M10.5,3C6.4,3,3,6.4,3,10.5v43.4c0,4.1,3.4,7.5,7.5,7.5h173.7c4.1,0,7.5-3.4,7.5-7.5V10.5
	c0-4.1-3.4-7.5-7.5-7.5H10.5z"/>
<g>
	<path class="st2" d="M193.3,10.5v43.4c0,5-4,9-9,9H10.5c-5,0-9-4-9-9V10.5c0-5,4-9,9-9h173.7C189.2,1.5,193.3,5.5,193.3,10.5z"/>
	<polygon class="st1" points="169.3,47 169.3,39 143.3,39 143.3,29.2 169.3,29.2 169.3,21.2 185.3,34.1 	"/>
</g>
</svg>
